<?xml version="1.0" encoding="utf-8"?>
<!-- Generator: Adobe Illustrator 22.0.1, SVG Export Plug-In . SVG Version: 6.00 Build 0)  -->
<svg version="1.1" id="Layer_1" xmlns="http://www.w3.org/2000/svg" xmlns:xlink="http://www.w3.org/1999/xlink" x="0px" y="0px"
	 viewBox="0 0 425.4 80.2" enable-background="new 0 0 425.4 80.2" xml:space="preserve">
<g id="XMLID_1_">
	<g id="XMLID_30_">
		<g id="XMLID_123_">
			<g id="XMLID_132_">
				<path id="XMLID_133_" fill="#B7B7B8" d="M61.7,248l4.8-5.9h4.3l-5.4,6l5.7,8.1h-4.5l-3.2-5.5l-1.8,1.6v3.9h-3.4v-19.1h3.4
					C61.6,237.1,61.3,248.5,61.7,248z"/>
			</g>
			<path id="XMLID_130_" fill="#B7B7B8" d="M27.5,243l-1.2,2.4c-1.4-0.7-2.4-1-3.4-1c-1.1,0-1.8,0.5-1.8,1.4c0,0.7,0.5,1.1,1.7,1.4
				l1.7,0.4c1.7,0.4,2.3,0.9,2.8,1.6c0.5,0.7,0.8,1.4,0.8,2.4c0,2.9-2.4,4.8-5.9,4.8c-1.7,0-3.6-0.5-5.6-1.6l1.3-2.7
				c1.1,0.7,3,1.6,4.6,1.6c1,0,1.8-0.7,1.8-1.6c0-0.9-0.7-1.4-2.1-1.7l-1.6-0.3c-0.9-0.2-2.1-0.8-2.5-1.4c-0.5-0.6-0.8-1.6-0.8-2.5
				c0-2.7,2.1-4.5,5.4-4.5C24.7,241.7,26.2,242.4,27.5,243z"/>
			<path id="XMLID_127_" fill="#B7B7B8" d="M40,252.3l1.4,2.2c-1.6,1.3-3.3,1.9-5.2,1.9c-4,0-6.6-2.8-6.6-7.2c0-2.5,0.5-4.1,1.7-5.5
				c1.1-1.3,2.5-1.9,4.4-1.9c1.6,0,3.1,0.5,4,1.5c1.3,1.3,1.8,3.2,1.8,6.1c0,0.3,0,0.4,0,0.8h-8v0.1c0,2.1,1.1,3.4,2.9,3.4
				C37.8,253.6,38.9,253.2,40,252.3z M33.6,247.5h4.2v-0.2c0-1-0.1-1.6-0.4-2.1c-0.4-0.5-0.9-0.8-1.6-0.8
				C34.4,244.5,33.6,245.5,33.6,247.5L33.6,247.5z"/>
			<path id="XMLID_124_" fill="#B7B7B8" d="M53.8,252.3l1.4,2.2c-1.6,1.3-3.3,1.9-5.2,1.9c-4,0-6.6-2.8-6.6-7.2
				c0-2.5,0.5-4.1,1.7-5.5c1.1-1.3,2.5-1.9,4.4-1.9c1.6,0,3.1,0.5,4,1.5c1.3,1.3,1.8,3.2,1.8,6.1c0,0.3,0,0.4,0,0.8h-8v0.1
				c0,2.1,1.1,3.4,2.9,3.4C51.5,253.6,52.7,253.2,53.8,252.3z M47.4,247.5h4.2v-0.2c0-1-0.1-1.6-0.4-2.1c-0.4-0.5-0.9-0.8-1.6-0.8
				C48.2,244.5,47.4,245.5,47.4,247.5L47.4,247.5z"/>
		</g>
	</g>
	<g id="XMLID_18_">
		<path id="XMLID_28_" fill="#51B848" d="M72.9,236.6h1.8v16.3c0,0.5,0.1,0.9,0.4,1.2c0.3,0.3,0.7,0.4,1.2,0.4c0.2,0,0.4,0,0.7-0.1
			c0.3-0.1,0.5-0.1,0.7-0.2l0.3,1.5c-0.3,0.1-0.8,0.3-1.2,0.3c-0.5,0.1-0.9,0.1-1.3,0.1c-0.8,0-1.5-0.2-2-0.7
			c-0.5-0.5-0.7-1.1-0.7-2V236.6z"/>
		<path id="XMLID_25_" fill="#51B848" d="M85,256.3c-1,0-1.9-0.2-2.8-0.6c-0.8-0.4-1.6-0.9-2.2-1.6c-0.6-0.7-1.1-1.4-1.4-2.3
			c-0.3-0.9-0.5-1.8-0.5-2.7c0-1,0.2-1.9,0.5-2.8c0.3-0.9,0.8-1.6,1.4-2.3c0.6-0.7,1.3-1.2,2.2-1.6c0.8-0.4,1.8-0.6,2.7-0.6
			c1,0,1.9,0.2,2.8,0.6c0.8,0.4,1.6,0.9,2.2,1.6c0.6,0.7,1.1,1.4,1.4,2.3c0.3,0.9,0.5,1.8,0.5,2.8c0,1-0.2,1.9-0.5,2.7
			c-0.3,0.9-0.8,1.6-1.4,2.3c-0.6,0.7-1.3,1.2-2.2,1.6C86.9,256.1,86,256.3,85,256.3z M79.9,249.2c0,0.8,0.1,1.5,0.4,2.2
			s0.6,1.3,1.1,1.8c0.5,0.5,1,0.9,1.6,1.2c0.6,0.3,1.3,0.4,2,0.4c0.7,0,1.3-0.1,2-0.4c0.6-0.3,1.2-0.7,1.6-1.2
			c0.5-0.5,0.8-1.1,1.1-1.8c0.3-0.7,0.4-1.4,0.4-2.2c0-0.8-0.1-1.5-0.4-2.2c-0.3-0.7-0.6-1.3-1.1-1.8c-0.5-0.5-1-0.9-1.6-1.2
			c-0.6-0.3-1.3-0.4-2-0.4c-0.7,0-1.3,0.1-1.9,0.4c-0.6,0.3-1.1,0.7-1.6,1.2c-0.5,0.5-0.8,1.1-1.1,1.8
			C80.1,247.7,79.9,248.4,79.9,249.2z"/>
		<path id="XMLID_22_" fill="#51B848" d="M99.4,256.2c-1,0-1.8-0.2-2.6-0.6c-0.8-0.4-1.5-0.9-2.1-1.6c-0.6-0.7-1-1.4-1.3-2.3
			c-0.3-0.9-0.5-1.7-0.5-2.6c0-1,0.2-1.9,0.5-2.8c0.3-0.9,0.8-1.7,1.3-2.3c0.6-0.7,1.2-1.2,2-1.6c0.8-0.4,1.7-0.6,2.6-0.6
			c1.2,0,2.2,0.3,3.1,0.9c0.9,0.6,1.6,1.3,2.2,2.3v-2.9h1.6v14c0,1-0.2,1.8-0.5,2.5c-0.4,0.7-0.9,1.4-1.5,1.9
			c-0.6,0.5-1.3,0.9-2.2,1.1c-0.8,0.2-1.7,0.4-2.6,0.4c-1.6,0-2.9-0.3-3.9-0.9c-1-0.6-1.8-1.3-2.4-2.3l1.1-0.9
			c0.6,0.9,1.3,1.5,2.2,2c0.9,0.4,1.9,0.6,2.9,0.6c0.7,0,1.3-0.1,1.9-0.3c0.6-0.2,1.1-0.5,1.6-0.8c0.5-0.4,0.8-0.8,1.1-1.4
			c0.3-0.6,0.4-1.2,0.4-2v-2.7c-0.5,0.9-1.3,1.6-2.2,2.1C101.4,256,100.4,256.2,99.4,256.2z M99.9,254.7c0.5,0,1.1-0.1,1.6-0.3
			c0.5-0.2,1-0.5,1.4-0.8c0.4-0.3,0.8-0.7,1.1-1.1c0.3-0.4,0.5-0.8,0.6-1.3V247c-0.2-0.5-0.5-1-0.8-1.4c-0.3-0.4-0.7-0.8-1.1-1.1
			c-0.4-0.3-0.9-0.5-1.4-0.7c-0.5-0.2-1-0.3-1.5-0.3c-0.8,0-1.5,0.2-2.1,0.5c-0.6,0.3-1.1,0.8-1.6,1.3c-0.4,0.5-0.8,1.1-1,1.8
			c-0.2,0.7-0.3,1.4-0.3,2.1c0,0.7,0.1,1.5,0.4,2.1c0.3,0.7,0.6,1.3,1.1,1.8c0.5,0.5,1,0.9,1.6,1.2
			C98.5,254.6,99.2,254.7,99.9,254.7z"/>
		<path id="XMLID_19_" fill="#51B848" d="M115.2,256.3c-1,0-1.9-0.2-2.8-0.6c-0.8-0.4-1.6-0.9-2.2-1.6c-0.6-0.7-1.1-1.4-1.4-2.3
			c-0.3-0.9-0.5-1.8-0.5-2.7c0-1,0.2-1.9,0.5-2.8c0.3-0.9,0.8-1.6,1.4-2.3c0.6-0.7,1.3-1.2,2.2-1.6c0.8-0.4,1.8-0.6,2.7-0.6
			c1,0,1.9,0.2,2.8,0.6c0.8,0.4,1.6,0.9,2.2,1.6c0.6,0.7,1.1,1.4,1.4,2.3c0.3,0.9,0.5,1.8,0.5,2.8c0,1-0.2,1.9-0.5,2.7
			c-0.3,0.9-0.8,1.6-1.4,2.3c-0.6,0.7-1.3,1.2-2.2,1.6C117.1,256.1,116.2,256.3,115.2,256.3z M110.2,249.2c0,0.8,0.1,1.5,0.4,2.2
			c0.3,0.7,0.6,1.3,1.1,1.8c0.5,0.5,1,0.9,1.6,1.2c0.6,0.3,1.3,0.4,2,0.4c0.7,0,1.3-0.1,2-0.4c0.6-0.3,1.2-0.7,1.6-1.2
			c0.5-0.5,0.8-1.1,1.1-1.8c0.3-0.7,0.4-1.4,0.4-2.2c0-0.8-0.1-1.5-0.4-2.2c-0.3-0.7-0.6-1.3-1.1-1.8c-0.5-0.5-1-0.9-1.6-1.2
			c-0.6-0.3-1.3-0.4-2-0.4c-0.7,0-1.3,0.1-1.9,0.4c-0.6,0.3-1.1,0.7-1.6,1.2c-0.5,0.5-0.8,1.1-1.1,1.8
			C110.3,247.7,110.2,248.4,110.2,249.2z"/>
	</g>
	<g id="XMLID_2_">
		<path id="XMLID_3_" fill="#848484" d="M125.9,254.7c0,0.5-0.2,1-0.6,1.4c-0.4,0.4-0.8,0.6-1.4,0.6c-0.5,0-1-0.2-1.4-0.6
			c-0.4-0.4-0.6-0.8-0.6-1.4c0-0.6,0.2-1,0.6-1.4c0.4-0.4,0.8-0.6,1.4-0.6c0.6,0,1,0.2,1.4,0.6C125.7,253.7,125.9,254.2,125.9,254.7
			z"/>
		<path id="XMLID_20_" fill="#848484" d="M127.7,242.4h2.5v2h0.1c0.4-0.7,1-1.3,1.9-1.7c0.8-0.5,1.7-0.7,2.6-0.7c1.7,0,3,0.5,4,1.5
			c0.9,1,1.4,2.4,1.4,4.2v8.8h-2.6v-8.7c-0.1-2.3-1.2-3.4-3.5-3.4c-1.1,0-1.9,0.4-2.6,1.3c-0.7,0.9-1.1,1.9-1.1,3.1v7.8h-2.6V242.4z
			"/>
		<path id="XMLID_23_" fill="#848484" d="M148.4,257c-2.1,0-3.8-0.7-5.1-2.1c-1.3-1.4-2-3.2-2-5.4c0-2.1,0.7-3.9,2-5.4
			c1.3-1.4,3-2.1,5-2.1c2.1,0,3.7,0.7,5,2c1.2,1.3,1.9,3.2,1.9,5.7l0,0.3H144c0,1.4,0.5,2.5,1.4,3.3c0.9,0.8,1.9,1.3,3.2,1.3
			c1.7,0,3-0.8,4-2.5l2.4,1.1c-0.6,1.2-1.5,2.1-2.6,2.8C151.1,256.6,149.8,257,148.4,257z M144.2,247.8h8.1c-0.1-1-0.5-1.8-1.2-2.4
			c-0.7-0.6-1.7-1-2.9-1c-1,0-1.9,0.3-2.6,0.9C144.9,245.9,144.4,246.8,144.2,247.8z"/>
		<path id="XMLID_27_" fill="#848484" d="M161.5,256.7c-1.1,0-2.1-0.4-2.9-1.1c-0.8-0.7-1.1-1.7-1.2-3v-7.9H155v-2.4h2.5v-4.3h2.6
			v4.3h3.4v2.4h-3.4v7c0,0.9,0.2,1.6,0.5,1.9c0.4,0.3,0.8,0.5,1.2,0.5c0.2,0,0.4,0,0.6-0.1c0.2,0,0.4-0.1,0.6-0.2l0.8,2.4
			C163.2,256.6,162.4,256.7,161.5,256.7z"/>
	</g>
</g>
<g id="XMLID_49_">
	<path id="XMLID_48_" fill="#B29430" d="M32.4,11.8c-5,0-6.5,2.2-6.5,7.1v8.1h13.4l-1.3,13.2H25.9v39.9H9.8V40.3H-1V27.1H9.8v-7.9
		c0-13.3,5.4-20.3,20.3-20.3c3.2,0,7,0.2,9.4,0.6v12.4"/>
	<path id="XMLID_66_" fill="#B29430" d="M40.4,52c0-14.8,7-26,21.8-26c8,0,12.9,4.1,15.3,9.3v-8.1h15.4v53.1H77.4v-8
		c-2.2,5.1-7.3,9.1-15.3,9.1c-14.7,0-21.8-11.2-21.8-26 M56.5,55.6c0,7.9,2.9,13.2,10.4,13.2c6.6,0,9.9-4.8,9.9-12.4V51
		c0-7.6-3.3-12.4-9.9-12.4c-7.5,0-10.4,5.2-10.4,13.2V55.6z"/>
	<path id="XMLID_45_" fill="#B29430" d="M126.3,26c6.2,0,12.2,1.3,15.4,3.6L138.1,41c-2.5-1.2-6.5-2.5-10.7-2.5
		c-8.7,0-12.5,5-12.5,13.6v3.1c0,8.6,3.8,13.6,12.5,13.6c4.2,0,8.3-1.2,10.7-2.5l3.6,11.4c-3.2,2.2-9.1,3.6-15.4,3.6
		c-18.9,0-27.4-10.2-27.4-26.4v-2.5C98.9,36.2,107.4,26,126.3,26"/>
	<path id="XMLID_62_" fill="#B29430" d="M143.8,55.7V51c0-15.1,8.6-25,26.1-25c16.5,0,23.8,10,23.8,24.8v8.5h-33.8
		c0.3,7.3,3.6,10.5,12.5,10.5c6,0,12.4-1.2,17.1-3.2l2.9,11c-4.2,2.2-12.9,3.9-20.6,3.9C151.4,81.5,143.8,71.3,143.8,55.7
		 M159.9,48.8h19.4v-1.3c0-5.8-2.3-10.4-9.4-10.4C162.7,37.1,159.9,41.6,159.9,48.8"/>
	<path id="XMLID_59_" fill="#B29430" d="M253.3,55.3c0,14.8-7.1,26-21.9,26c-8,0-13.6-4-15.8-9.1v8h-15.2V0.4L216.4-1v35.5
		c2.3-4.7,7.5-8.5,15-8.5c14.7,0,21.9,11.2,21.9,26 M237.2,51.7c0-7.5-2.9-13.1-10.6-13.1c-6.6,0-10.2,4.7-10.2,12.3v5.6
		c0,7.6,3.6,12.3,10.2,12.3c7.7,0,10.6-5.6,10.6-13.1V51.7z"/>
	<path id="XMLID_56_" fill="#B29430" d="M258.6,55v-2.7c0-15.3,8.7-26.3,26.4-26.3c17.7,0,26.4,11,26.4,26.3V55
		c0,15.3-8.7,26.3-26.4,26.3C267.3,81.3,258.6,70.3,258.6,55 M295.4,51.2c0-7-2.9-12.6-10.4-12.6c-7.5,0-10.4,5.6-10.4,12.6v4.9
		c0,7,2.9,12.6,10.4,12.6c7.5,0,10.4-5.6,10.4-12.6V51.2z"/>
	<path id="XMLID_53_" fill="#B29430" d="M316.9,55v-2.7c0-15.3,8.7-26.3,26.4-26.3c17.7,0,26.4,11,26.4,26.3V55
		c0,15.3-8.7,26.3-26.4,26.3C325.5,81.3,316.9,70.3,316.9,55 M353.7,51.2c0-7-2.9-12.6-10.4-12.6c-7.5,0-10.4,5.6-10.4,12.6v4.9
		c0,7,2.9,12.6,10.4,12.6c7.5,0,10.4-5.6,10.4-12.6V51.2z"/>
	<polyline id="XMLID_32_" fill="#B29430" points="391.8,52.4 407.7,27.1 424.7,27.1 408.1,53.3 425.4,80.2 408.3,80.2 391.8,54.2 
		391.8,80.2 375.8,80.2 375.8,0.5 391.8,-1 	"/>
</g>
</svg>
