<?xml version="1.0" encoding="utf-8"?>
<!-- Generator: Adobe Illustrator 22.0.1, SVG Export Plug-In . SVG Version: 6.00 Build 0)  -->
<svg version="1.1" id="Layer_1" xmlns="http://www.w3.org/2000/svg" xmlns:xlink="http://www.w3.org/1999/xlink" x="0px" y="0px"
	 viewBox="0 0 256.6 89.7" enable-background="new 0 0 256.6 89.7" xml:space="preserve">
<g id="XMLID_11_">
	<path id="XMLID_10_" fill="#B39400" d="M33.3,33.3v8.6h20.5c-0.6,4.8-2.2,8.3-4.7,10.8c-3,3-7.7,6.3-15.8,6.3
		c-12.6,0-22.5-10.2-22.5-22.8s9.9-22.8,22.5-22.8c6.8,0,11.8,2.7,15.5,6.1l6-6c-5.1-5-11.9-8.7-21.5-8.7C16,4.7,1.5,18.8,1.5,36.1
		S16,67.5,33.3,67.5c9.4,0,16.4-3.1,21.9-8.8c5.7-5.7,7.4-13.6,7.4-20.1c0-2-0.1-3.8-0.5-5.4H33.3z"/>
	<path id="XMLID_24_" fill="#B39400" d="M88.4,26.3C77.1,26.3,68,34.8,68,46.6c0,11.7,9.1,20.3,20.4,20.3s20.4-8.6,20.4-20.3
		C108.7,34.8,99.6,26.3,88.4,26.3z M88.4,58.9c-6.1,0-11.4-5.1-11.4-12.3c0-7.3,5.3-12.3,11.4-12.3c6.1,0,11.4,5,11.4,12.3
		C99.8,53.8,94.5,58.9,88.4,58.9z"/>
	<path id="XMLID_21_" fill="#B39400" d="M188.1,30.9h-0.3c-2-2.4-5.8-4.5-10.7-4.5c-10.1,0-19,8.8-19,20.3c0,11.4,8.8,20.3,19,20.3
		c4.9,0,8.7-2.2,10.7-4.6h0.3v2.8c0,7.7-4.2,11.9-10.8,11.9c-5.4,0-8.8-3.9-10.2-7.2l-7.7,3.2c2.2,5.4,8.1,12,18,12
		c10.4,0,19.3-6.1,19.3-21.1V27.4h-8.4V30.9z M177.9,58.9c-6.1,0-10.8-5.2-10.8-12.3c0-7.2,4.7-12.3,10.8-12.3
		c6.1,0,10.8,5.2,10.8,12.4C188.7,53.8,184,58.9,177.9,58.9z"/>
	<path id="XMLID_18_" fill="#B39400" d="M133.7,26.3c-11.2,0-20.4,8.5-20.4,20.3c0,11.7,9.1,20.3,20.4,20.3s20.4-8.6,20.4-20.3
		C154.1,34.8,144.9,26.3,133.7,26.3z M133.7,58.9c-6.1,0-11.4-5.1-11.4-12.3c0-7.3,5.3-12.3,11.4-12.3s11.4,5,11.4,12.3
		C145.2,53.8,139.9,58.9,133.7,58.9z"/>
	<path id="XMLID_3_" fill="#B39400" d="M203.5,5.5h8.8v61.3h-8.8V5.5z"/>
	<path id="XMLID_14_" fill="#B39400" d="M239.4,58.9c-4.5,0-7.7-2.1-9.8-6.1l27.1-11.2l-0.9-2.3c-1.7-4.5-6.8-12.9-17.3-12.9
		c-10.4,0-19.1,8.2-19.1,20.3c0,11.4,8.6,20.3,20.1,20.3c9.3,0,14.7-5.7,16.9-9l-6.9-4.6C247,56.6,243.9,58.9,239.4,58.9L239.4,58.9
		z M238.7,33.9c3.6,0,6.7,1.9,7.7,4.5L228.1,46C228.1,37.4,234.1,33.9,238.7,33.9z"/>
</g>
</svg>
